<?xml version="1.0" encoding="UTF-8"?>
<!DOCTYPE svg PUBLIC "-//W3C//DTD SVG 1.1//EN" "http://www.w3.org/Graphics/SVG/1.1/DTD/svg11.dtd">
<!-- Creator: CorelDRAW -->
<svg xmlns="http://www.w3.org/2000/svg" xml:space="preserve" width="2048px" height="2048px" style="shape-rendering:geometricPrecision; text-rendering:geometricPrecision; image-rendering:optimizeQuality; fill-rule:evenodd; clip-rule:evenodd"
viewBox="0 0 2048 2048"
 xmlns:xlink="http://www.w3.org/1999/xlink">
 <defs>
  <style type="text/css">
   <![CDATA[
    .fil0 {fill:none}
    .fil1 {fill:#212121;fill-rule:nonzero}
   ]]>
  </style>
 </defs>
 <g id="Layer_x0020_1">
  <metadata id="CorelCorpID_0Corel-Layer"/>
  <g id="_444486680">
   <rect id="_444484376" class="fil0" x="255.996" y="255.996" width="1536" height="1536"/>
   <path id="_444486152" class="fil1" d="M1007.66 671.999c79.3512,0 151.226,32.1343 203.289,84.091 52.1209,52.017 84.3556,123.804 84.3556,203.035 0,79.2355 -32.2347,151.026 -84.3556,203.047 -52.0619,51.9615 -123.938,84.0981 -203.289,84.0981 -79.3477,0 -151.218,-32.1366 -203.276,-84.0981 -52.1174,-52.0205 -84.3509,-123.812 -84.3509,-203.047 0,-79.2308 32.2335,-151.017 84.3509,-203.035 52.0583,-51.9567 123.927,-84.091 203.276,-84.091zm162.801 124.805c-41.6174,-41.5335 -99.1702,-67.2213 -162.801,-67.2213 -63.6249,0 -121.174,25.6878 -162.788,67.2213 -41.5536,41.4733 -67.2544,98.856 -67.2544,162.321 0,63.4689 25.6996,120.858 67.2544,162.334 41.6138,41.537 99.1631,67.2272 162.788,67.2272 63.6284,0 121.184,-25.6902 162.801,-67.2272 41.5583,-41.478 67.2591,-98.8654 67.2591,-162.334 0,-63.4642 -25.7008,-120.847 -67.2591,-162.321z"/>
   <path id="_444486560" class="fil1" d="M383.999 1188.24c0,-17.0386 6.28819,-32.7839 16.7008,-45.0059l0.0614174 0.0531496c4.26733,-4.99725 9.22796,-9.38623 14.7319,-13.0134l0 -341.784c-5.51575,-3.62362 -10.4882,-8.01733 -14.7662,-13.0264l-0.0614174 0.0531496c-10.3913,-12.1996 -16.6665,-27.9142 -16.6665,-45.0225l0 -131.732c0,-17.0351 6.29056,-32.7803 16.702,-44.9989 4.26496,-5.00552 9.24804,-9.40276 14.7921,-13.0311l0 -96.2977c0,-25.2992 10.3417,-48.2717 27.0662,-64.963 16.6571,-16.624 39.613,-26.9079 64.9205,-26.9079l1031.86 0c25.3075,0 48.2634,10.2839 64.9205,26.9079 16.7244,16.6914 27.0662,39.6638 27.0662,64.963l0 1029.87c0,25.2992 -10.3417,48.2717 -27.0662,64.963 -16.6571,16.624 -39.613,26.9079 -64.9205,26.9079l-1031.86 0c-25.3075,0 -48.2634,-10.2839 -64.9205,-26.9079 -16.7244,-16.6914 -27.0662,-39.6638 -27.0662,-64.963l0 -96.2682c-5.55709,-3.62599 -10.552,-8.02323 -14.8288,-13.0429 -10.3913,-12.1949 -16.6654,-27.9071 -16.6654,-45.0166l0 -131.732zm65.2016 -3.5067c-0.746457,0.876379 -1.2,2.1 -1.2,3.5067l0 131.732c0,1.44449 0.43937,2.66575 1.16457,3.51733 0.87756,1.02992 2.05158,1.74095 3.32835,1.9441l27.0012 4.30276 0 27.1973 0 117.366c0,7.7752 3.0815,14.7402 8.06457,19.7126 5.04922,5.03859 12.0886,8.1567 19.9205,8.1567l1031.86 0c7.8319,0 14.8713,-3.11811 19.9205,-8.1567 4.98307,-4.97244 8.06457,-11.9374 8.06457,-19.7126l0 -1029.87c0,-7.7752 -3.0815,-14.7402 -8.06457,-19.7126 -5.04922,-5.03859 -12.0886,-8.1567 -19.9205,-8.1567l-1031.86 0c-7.8319,0 -14.8713,3.11811 -19.9205,8.1567 -4.98307,4.97244 -8.06457,11.9374 -8.06457,19.7126l0 117.366 0 27.1984 -27.0012 4.30158c-1.24016,0.197244 -2.40236,0.917717 -3.29173,1.96181 -0.747638,0.87756 -1.20118,2.09882 -1.20118,3.49961l0 131.732c0,1.44803 0.440552,2.67166 1.16575,3.52323l0 0.124016c0.80315,0.943702 1.97244,1.60984 3.32717,1.8248l27.0012 4.30394 0 27.1961 0 383.802 0 27.1949 -27.0012 4.30512c-1.31929,0.210236 -2.47914,0.884646 -3.29292,1.84134l0 0.124016z"/>
   <path id="_444482600" class="fil1" d="M1129.68 959.122c0,33.5776 -13.7079,64.0489 -35.8677,86.165 -22.0949,22.0524 -52.5626,35.6918 -86.1638,35.6918 -33.5918,0 -64.0548,-13.6406 -86.1438,-35.6941 -22.1563,-22.1173 -35.8618,-52.5874 -35.8618,-86.1627 0,-33.5634 13.7067,-64.03 35.8642,-86.1438 22.0925,-22.0488 52.552,-35.6882 86.1414,-35.6882 33.6,0 64.0654,13.6382 86.1603,35.6859 22.1634,22.1126 35.8713,52.5792 35.8713,86.1461zm-80.8678 40.9146c10.4197,-10.3996 16.8662,-24.861 16.8662,-40.9146 0,-16.0406 -6.44764,-30.4973 -16.8697,-40.8957 -10.4847,-10.4622 -25.0347,-16.9347 -41.1603,-16.9347 -16.1138,0 -30.6567,6.47363 -41.1414,16.937 -10.4173,10.3973 -16.8626,24.8528 -16.8626,40.8933 0,16.0536 6.4441,30.5138 16.8602,40.9122 10.4847,10.4669 25.0288,16.9429 41.1437,16.9429 16.1268,0 30.6768,-6.47481 41.1638,-16.9406z"/>
   <path id="_444488936" class="fil1" d="M577.141 1662.73l0 97.2639 168.046 0 0 -97.2639 0 -32.0008 32.0008 0 493.618 0 32.0008 0 0 32.0008 0 97.2639 168.046 0 0 -97.2639 0 -32.0008 32.0008 0 148.087 0c12.7287,0 24.2173,-5.113 32.4933,-13.3736 8.20985,-8.19449 13.2933,-19.5992 13.2933,-32.2618l0 -1251.46c0,-12.6626 -5.08347,-24.0673 -13.2933,-32.2618 -8.27599,-8.26064 -19.7646,-13.3736 -32.4933,-13.3736l-1253.89 0c-12.7287,0 -24.2173,5.113 -32.4933,13.3736 -8.20985,8.19449 -13.2933,19.5992 -13.2933,32.2618l0 1251.46c0,12.6626 5.08347,24.0673 13.2933,32.2618 8.27599,8.26064 19.7646,13.3736 32.4933,13.3736l148.087 0 32.0008 0 0 32.0008zm-64.0016 119.405l0 -87.404 -116.086 0c-30.2044,0 -57.6119,-12.2823 -77.4934,-32.1248 -19.9477,-19.9087 -32.2949,-47.3256 -32.2949,-77.5123l0 -1251.46c0,-30.1866 12.3473,-57.6036 32.2949,-77.5123 19.8815,-19.8425 47.289,-32.1248 77.4934,-32.1248l1253.89 0c30.2044,0 57.6119,12.2823 77.4934,32.1248 19.9477,19.9087 32.2949,47.3256 32.2949,77.5123l0 1251.46c0,30.1866 -12.3473,57.6036 -32.2949,77.5123 -19.8815,19.8425 -47.289,32.1248 -77.4934,32.1248l-116.086 0 0 87.404c0,13.1421 -6.21378,24.4949 -16.252,32.2205 -7.73032,5.95394 -17.863,9.64016 -28.5544,9.64016l-206.427 0c-10.6878,0 -20.824,-3.68268 -28.5614,-9.63898 -10.0441,-7.72678 -16.2543,-19.0795 -16.2543,-32.2217l0 -87.404 -429.617 0 0 87.404c0,13.1421 -6.21024,24.4949 -16.2543,32.2217 -7.73741,5.9563 -17.8736,9.63898 -28.5614,9.63898l-206.427 0c-10.6913,0 -20.824,-3.68622 -28.5544,-9.64016 -10.0382,-7.7256 -16.252,-19.0784 -16.252,-32.2205z"/>
  </g>
  <rect class="fil0" width="2048" height="2048"/>
 </g>
</svg>
